<?xml version="1.0" encoding="utf-8"?>
<!-- Generator: Adobe Illustrator 17.0.0, SVG Export Plug-In . SVG Version: 6.00 Build 0)  -->
<!DOCTYPE svg PUBLIC "-//W3C//DTD SVG 1.1//EN" "http://www.w3.org/Graphics/SVG/1.1/DTD/svg11.dtd">
<svg version="1.1" id="Layer_1" xmlns="http://www.w3.org/2000/svg" xmlns:xlink="http://www.w3.org/1999/xlink" x="0px" y="0px"
	 width="800px" height="600px" viewBox="0 0 800 600" enable-background="new 0 0 800 600" xml:space="preserve">
<g>
	<g>
		<path fill="#74B7D6" d="M126.4,487.826c-11.258,0-21.815-2.167-31.659-6.501c-9.857-4.321-18.459-10.161-25.819-17.534
			c-7.36-7.347-13.147-15.962-17.375-25.805c-4.215-9.857-6.329-20.296-6.329-31.342c0-11.258,2.114-21.802,6.329-31.659
			c4.228-9.857,10.016-18.459,17.375-25.819c7.36-7.36,15.962-13.147,25.819-17.375c9.844-4.215,20.401-6.329,31.659-6.329
			s21.815,2.114,31.659,6.329c9.857,4.228,18.459,10.016,25.819,17.375c7.36,7.36,13.16,15.962,17.375,25.819
			c4.228,9.857,6.329,20.401,6.329,31.659v81.182h-33.773v-81.182c0-6.712-1.242-12.989-3.726-18.829
			c-2.497-5.853-5.906-10.941-10.227-15.261c-4.334-4.334-9.368-7.743-15.103-10.24c-5.748-2.484-11.852-3.726-18.353-3.726
			c-6.488,0-12.605,1.242-18.34,3.726c-5.748,2.497-10.782,5.906-15.103,10.24c-4.334,4.321-7.743,9.408-10.227,15.261
			c-2.497,5.84-3.739,12.117-3.739,18.829c0,6.501,1.242,12.619,3.739,18.353c2.484,5.735,5.893,10.769,10.227,15.09
			c4.321,4.334,9.355,7.743,15.103,10.227c5.735,2.497,11.852,3.739,18.34,3.739c2.167,0,4.175-0.106,6.012-0.317
			c1.837-0.225,3.739-0.542,5.682-0.978l7.796,32.795C136.151,487.073,129.65,487.826,126.4,487.826z"/>
		<g>
			<path fill="#74B7D6" d="M391,315.77v182h364v-182H391z M557.323,438.303c-4.334,9.857-10.187,18.406-17.534,25.66
				c-7.373,7.254-15.975,12.989-25.819,17.204c-9.857,4.228-20.296,6.329-31.342,6.329c-11.258,0-21.815-2.101-31.659-6.329
				c-9.857-4.215-18.406-9.95-25.647-17.204c-7.267-7.254-12.989-15.803-17.217-25.66c-4.215-9.844-6.329-20.401-6.329-31.659
				c0-11.258,2.114-21.802,6.329-31.659c4.228-9.857,9.95-18.459,17.217-25.819c7.241-7.36,15.79-13.147,25.647-17.375
				c9.844-4.215,20.401-6.329,31.659-6.329c11.046,0,21.485,2.114,31.342,6.329c9.844,4.228,18.446,10.016,25.819,17.375
				c7.347,7.36,13.2,15.962,17.534,25.819c4.321,9.857,6.488,20.401,6.488,31.659C563.81,417.902,561.643,428.459,557.323,438.303z
				 M744,487.77h-34v-81.126c0-6.501-1.129-12.658-3.613-18.512c-2.484-5.84-5.83-10.874-10.164-15.103
				c-4.334-4.215-9.337-7.571-15.071-10.055c-5.735-2.497-11.836-3.739-18.324-3.739c-6.501,0-12.611,1.242-18.345,3.739
				c-5.734,2.484-10.765,5.84-15.086,10.055c-4.334,4.228-7.958,9.263-10.456,15.103c-2.484,5.853-3.941,12.011-3.941,18.512v81.126
				h-33v-81.126c-1-11.046,1.615-21.485,5.843-31.342c4.215-9.844,9.918-18.446,17.278-25.805
				c7.36-7.36,15.985-13.213,25.935-17.534c9.963-4.334,20.552-6.501,31.81-6.501c11.258,0,21.857,2.167,31.807,6.501
				c9.963,4.321,18.612,10.174,25.972,17.534c7.36,7.36,13.145,15.962,17.36,25.805c4.228,9.857,5.997,20.296,5.997,31.342V487.77z"
				/>
			<path fill="#74B7D6" d="M516.243,373.03c-4.228-4.215-9.262-7.571-15.103-10.055c-5.84-2.497-12.011-3.739-18.512-3.739
				c-6.488,0-12.658,1.242-18.512,3.739c-5.84,2.484-10.927,5.84-15.261,10.055c-4.334,4.228-7.743,9.263-10.227,15.103
				c-2.484,5.853-3.726,12.011-3.726,18.512c0,6.501,1.242,12.619,3.726,18.353c2.484,5.735,5.893,10.716,10.227,14.931
				c4.334,4.228,9.421,7.584,15.261,10.068c5.853,2.484,12.024,3.739,18.512,3.739c6.501,0,12.672-1.255,18.512-3.739
				c5.84-2.484,10.875-5.84,15.103-10.068c4.215-4.215,7.571-9.196,10.068-14.931c2.484-5.735,3.726-11.852,3.726-18.353
				c0-6.501-1.242-12.658-3.726-18.512C523.814,382.292,520.458,377.258,516.243,373.03z"/>
		</g>
	</g>
	<path fill="#74B7D6" d="M324.14,449.997c-5.84,2.484-12.011,3.739-18.512,3.739c-6.488,0-12.658-1.255-18.512-3.739
		c-5.84-2.484-10.927-5.84-15.261-10.068c-4.334-4.215-7.743-9.196-10.227-14.931c-2.484-5.735-3.726-11.852-3.726-18.353
		c0-6.501,1.242-12.658,3.726-18.512c2.484-5.84,5.893-10.874,10.227-15.103c4.334-4.215,9.421-7.571,15.261-10.055
		c5.853-2.497,12.024-3.739,18.512-3.739c6.501,0,12.672,1.242,18.512,3.739c5.84,2.484,10.875,5.84,15.103,10.055
		c4.215,4.228,7.571,9.265,10.068,15.105c0.229,0.541,0.437,0.635,0.645,1.635H300v34h87.032c0,0-0.222-17.083-0.222-17.123
		c0-5.786-0.583-11.38-1.726-16.793l-0.009-0.084h-0.011c-1.081-5-2.654-10.018-4.742-14.782
		c-4.334-9.857-10.187-18.46-17.534-25.82c-7.373-7.36-15.975-13.148-25.819-17.376c-9.857-4.215-20.296-6.329-31.342-6.329
		c-11.258,0-21.815,2.114-31.659,6.329c-9.857,4.228-18.406,10.016-25.647,17.375c-7.267,7.36-12.989,15.962-17.217,25.819
		c-4.215,9.857-6.329,20.401-6.329,31.659c0,11.258,2.114,21.815,6.329,31.659c4.228,9.857,9.95,18.406,17.217,25.66
		c7.241,7.254,15.79,12.989,25.647,17.204c9.844,4.228,20.401,6.329,31.659,6.329c11.046,0,21.485-2.101,31.342-6.329
		c5.559-2.38,10.707-5.263,15.476-8.612l-19.384-27.476C330.33,446.98,327.362,448.626,324.14,449.997z"/>
</g>
<path fill="#74B7D6" d="M483.515,215.497c-5.84,2.484-12.011,3.739-18.512,3.739c-6.488,0-12.658-1.255-18.512-3.739
	c-5.84-2.484-10.927-5.84-15.261-10.068c-4.334-4.215-7.743-9.196-10.227-14.931c-2.484-5.735-3.726-11.852-3.726-18.353
	c0-6.501,1.242-12.658,3.726-18.512c2.484-5.84,5.893-10.874,10.227-15.103c4.334-4.215,9.421-7.571,15.261-10.055
	c5.853-2.497,12.024-3.739,18.512-3.739c6.501,0,12.672,1.242,18.512,3.739c5.84,2.484,10.875,5.84,15.103,10.055
	c4.215,4.228,7.571,9.515,10.068,15.355c0.229,0.541,0.437,0.885,0.645,1.885H460v34h86.407c0,0-0.222-17.333-0.222-17.373
	c0-5.786-0.583-11.255-1.726-16.668l-0.009,0.041h-0.011c-1.081-6-2.654-10.268-4.742-15.032
	c-4.334-9.857-10.187-18.585-17.534-25.945c-7.373-7.36-15.975-13.21-25.819-17.439c-9.857-4.215-20.296-6.361-31.342-6.361
	c-11.258,0-21.815,2.098-31.659,6.313c-9.857,4.228-18.406,10.008-25.647,17.368c-2.785,2.82-5.339,5.826-7.672,9.011
	c-2.362-3.188-4.951-6.197-7.773-9.019c-7.36-7.36-15.962-13.147-25.819-17.375c-9.844-4.215-20.401-6.329-31.659-6.329
	c-11.258,0-21.815,2.114-31.659,6.329c-9.857,4.228-18.459,10.016-25.819,17.375c-7.36,7.36-13.147,15.962-17.375,25.819
	c-4.215,9.857-6.329,20.401-6.329,31.659c0,11.046,2.114,21.485,6.329,31.342c4.228,9.844,10.016,18.459,17.375,25.805
	c7.36,7.373,15.962,13.213,25.819,17.534c9.844,4.334,20.401,6.501,31.659,6.501c3.25,0,9.751-0.753,19.49-2.273l-7.796-32.795
	c-1.942,0.436-3.845,0.753-5.682,0.978c-1.837,0.211-3.845,0.317-6.012,0.317c-6.488,0-12.605-1.242-18.34-3.739
	c-5.748-2.484-10.782-5.893-15.103-10.227c-4.334-4.321-7.743-9.355-10.227-15.089c-2.497-5.735-3.739-11.852-3.739-18.353
	c0-6.712,1.242-12.989,3.739-18.829c2.484-5.853,5.893-10.941,10.227-15.261c4.321-4.334,9.355-7.743,15.103-10.24
	c5.735-2.484,11.852-3.726,18.34-3.726c6.501,0,12.605,1.242,18.353,3.726c5.735,2.497,10.769,5.906,15.103,10.24
	c4.321,4.321,8.138,9.408,10.635,15.261c2.484,5.84,4.134,12.117,4.134,18.829v81.626h34v-17.13c5,3.968,10.527,7.316,16.866,10.027
	c9.844,4.228,20.14,6.329,31.398,6.329c11.046,0,21.354-2.101,31.211-6.329c5.559-2.38,10.642-5.263,15.41-8.612l-19.417-27.476
	C489.738,212.48,486.737,214.126,483.515,215.497z"/>
</svg>
